<?xml version="1.0" encoding="UTF-8"?>
<svg xmlns="http://www.w3.org/2000/svg" height="275.051" viewBox="0 0 413.033 275.051" width="413.033">
  <g fill="#fff">
    <path d="m402.641 306.537a.483.483 0 0 1 -.543-.543v-29.71a.664.664 0 0 0 -.725-.664h-2.717a.6.6 0 0 0 -.725.664v33.393a.6.6 0 0 0 .664.664h12.5c.483 0 .845-.121.906-.483a16.247 16.247 0 0 0 .966-2.657.6.6 0 0 0 -.664-.664zm-23.308 0a.483.483 0 0 1 -.543-.543v-29.71a.664.664 0 0 0 -.725-.664h-2.717a.6.6 0 0 0 -.664.664v33.393a.6.6 0 0 0 .664.664h12.5c.483 0 .845-.121.906-.483a16.244 16.244 0 0 0 .966-2.657.6.6 0 0 0 -.664-.664zm-27.354-8.031a.483.483 0 0 1 -.543-.543v-12.38c0-3.623 1.751-6.521 4.468-6.521s4.468 2.959 4.468 6.521v12.379a.483.483 0 0 1 -.543.543zm7.85 3.8a.483.483 0 0 1 .543.543v6.823a.725.725 0 0 0 .725.664h2.717a.725.725 0 0 0 .664-.664v-24.813c0-5.374-3.019-9.661-8.635-9.661s-8.635 4.287-8.635 9.661v13.341c0 .664-1.087.483-1.087 1.208s1.087 2.6 1.087 3.08v7.246a.725.725 0 0 0 .664.664h2.717a.725.725 0 0 0 .725-.664v-6.884a.483.483 0 0 1 .543-.543zm-36.17-4.348v-21.674a.664.664 0 0 0 -.725-.664h-2.717a.6.6 0 0 0 -.664.664v21.916c0 .664-1.087.483-1.087 1.208s1.087 2.6 1.087 3.08v7.246a.6.6 0 0 0 .664.664h2.717c.483 0 .725-.181.725-.664v-6.884a.483.483 0 0 1 .543-.543h8.212a.483.483 0 0 1 .543.543v6.823c0 .483.3.664.725.664h2.657c.483 0 .725-.181.725-.664v-33.389a.664.664 0 0 0 -.725-.664h-2.657a.664.664 0 0 0 -.725.664v21.678a.483.483 0 0 1 -.543.543h-8.214a.483.483 0 0 1 -.543-.543m-36.895-22.7c-6.038 0-10.507 5.737-10.507 19.565a.845.845 0 0 1 -.362.845c-.483.3-.725.543-.725 1.027s1.51 2.234 1.51 2.9c1.268 8.092 5.133 11.171 9.6 11.171s7.307-5.374 7.307-6.7-1.812-1.872-2.657-1.872-1.389 4.71-4.468 4.71-4.952-2.053-5.495-7.306a.483.483 0 0 1 .543-.543h4.892c1.268 0 2.234-2.295 2.234-3.261s-.3-.544-.725-.544h-7a.483.483 0 0 1 -.543-.543c0-11.413 3.019-15.7 5.978-15.7 1.932 0 2.959 2.174 2.959 4.408 0 .664.3.966.725.966s3.08-1.087 3.08-2.113c0-3.8-2.536-7.065-6.4-7.065m-25.845 31.7c-2.838 0-6.4-2.717-6.4-12.922s3.137-14.985 6.698-14.985c1.932 0 3.019 2.053 3.019 4.348 0 .664.3.966.664.966s3.14-1.087 3.14-2.113c0-3.8-2.536-7-6.461-7-6.038 0-11.171 5.676-11.171 19.021s5.133 16.485 10.507 16.485 7.79-5.374 7.79-6.7-1.812-1.872-2.657-1.872-1.993 4.71-5.072 4.71m-35.145-20.175c0-.121 0-.362.242-.362s.3.3.3.3l11.413 23.007a1.389 1.389 0 0 0 1.208.664h1.51c.483 0 .725-.181.725-.664v-33.331a.664.664 0 0 0 -.725-.664h-2.355a.664.664 0 0 0 -.725.664v23.067c0 .121 0 .423-.181.423s-.362-.362-.362-.362l-11.413-23.127a1.449 1.449 0 0 0 -1.268-.664h-1.51a.6.6 0 0 0 -.664.664v33.393a.6.6 0 0 0 .664.664h2.415c.483 0 .664-.181.664-.664v-22.947zm-26.509 11.835a.483.483 0 0 1 -.543-.543v-12.379c0-3.623 1.751-6.521 4.468-6.521s4.468 2.959 4.468 6.521v12.379a.483.483 0 0 1 -.543.543zm7.85 3.8a.483.483 0 0 1 .544.543v6.823a.725.725 0 0 0 .725.664h2.715a.725.725 0 0 0 .664-.664v-24.812c0-5.374-3.019-9.661-8.635-9.661s-8.635 4.287-8.635 9.661v13.341c0 .664-1.087.483-1.087 1.208s1.087 2.6 1.087 3.08v7.246a.725.725 0 0 0 .664.664h2.717a.725.725 0 0 0 .725-.664v-6.884a.483.483 0 0 1 .544-.543zm-36.835 8.031a.579.579 0 0 0 .664-.664v-21.072c0-7 2.415-9.6 5.133-9.6s4.167 2.959 4.167 6.522v24.093a.664.664 0 0 0 .664.664h2.717a.725.725 0 0 0 .664-.664v-24.756c0-5.374-3.019-9.661-8.273-9.661s-6.522 3.14-7 4.529c-.06.121-.121.242-.181.242s-.181-.121-.242-.242a7.125 7.125 0 0 0 -6.884-4.529c-5.072 0-8.393 4.287-8.393 9.661v24.818a.725.725 0 0 0 .664.664h2.719a.725.725 0 0 0 .725-.664v-24.094c0-3.623 1.449-6.521 4.167-6.521s5.133 2.6 5.133 9.6v21.074c0 .423.242.664.725.664zm-38.948-13.1c-.242 0-.3-.121-.3-.423v-16.785a.483.483 0 0 1 .543-.543h2.838a5.435 5.435 0 0 1 5.495 5.555c0 5.193-3.442 8.273-7.669 11.775a1.751 1.751 0 0 1 -.906.483m6.884.242c0-.181.06-.3.362-.543 1.872-1.872 5.435-5.978 5.435-11.956s-3.442-9.36-10.084-9.36h-6.4a.6.6 0 0 0 -.664.664v33.393a.6.6 0 0 0 .664.664h2.778c.483 0 .664-.181.664-.664v-6.642c0-.242.121-.483.664-.966s2.355-2.053 2.778-2.053.6.121.906.725 3.925 7.488 4.71 8.877a1.389 1.389 0 0 0 1.268.664h3.019a.664.664 0 0 0 .725-.6 3.2 3.2 0 0 0 -.664-1.268l-5.918-10.447a1.026 1.026 0 0 1 -.242-.483m-30.373 13.285c5.555 0 9.843-4.831 9.843-17.693s-4.287-17.813-9.843-17.813-9.846 4.825-9.846 17.807 4.287 17.693 9.843 17.693m0-3.8c-3.623 0-5.676-3.623-5.676-13.828s2.053-14.07 5.676-14.07 5.737 3.865 5.737 14.07-2.113 13.828-5.737 13.828m-26.387-27.177a.483.483 0 0 1 .544-.547h7.971c.483 0 .845-.121.906-.483a12.741 12.741 0 0 0 .966-2.415c0-.483-.242-.725-.664-.725h-13.285a.6.6 0 0 0 -.6.6v18.423a.785.785 0 0 1 -.362.845c-.483.362-.725.483-.725 1.027s1.087 2.355 1.087 3.019v10.145a.6.6 0 0 0 .664.664h2.717c.483 0 .725-.181.725-.664v-10.083a.483.483 0 0 1 .543-.543h4.65c1.268 0 2.234-2.295 2.234-3.261s-.3-.543-.725-.543h-6.162a.483.483 0 0 1 -.543-.544v-14.976zm-26.206 17.391c-.242 0-.3-.121-.3-.423v-16.787a.483.483 0 0 1 .543-.543h2.838a5.435 5.435 0 0 1 5.495 5.555c0 5.193-3.442 8.273-7.669 11.775a1.751 1.751 0 0 1 -.906.483m6.884.242c0-.181.06-.3.362-.543 1.872-1.872 5.435-5.978 5.435-11.956s-3.382-9.36-10.084-9.36h-6.4a.6.6 0 0 0 -.664.664v33.393a.6.6 0 0 0 .664.664h2.778c.483 0 .664-.181.664-.664v-6.642c0-.242.121-.483.664-.966s2.355-2.053 2.778-2.053.6.121.906.725 3.925 7.488 4.71 8.877a1.389 1.389 0 0 0 1.268.664h3.019a.664.664 0 0 0 .725-.6 3.139 3.139 0 0 0 -.664-1.268l-5.918-10.447a1.026 1.026 0 0 1 -.242-.483m-26.572-22.287c-6.038 0-10.507 5.737-10.507 19.565a.845.845 0 0 1 -.362.845c-.483.3-.725.544-.725 1.027s1.51 2.234 1.51 2.9c1.268 8.092 5.133 11.171 9.6 11.171s7.186-5.374 7.186-6.7-1.812-1.872-2.657-1.872-1.389 4.71-4.468 4.71-4.952-2.053-5.495-7.307a.483.483 0 0 1 .543-.543h4.891c1.268 0 2.234-2.295 2.234-3.261s-.3-.543-.725-.543h-6.882a.483.483 0 0 1 -.543-.543c0-11.413 3.019-15.7 5.978-15.7 1.932 0 2.959 2.174 2.959 4.408 0 .664.3.966.725.966s3.08-1.087 3.08-2.113c0-3.8-2.536-7.065-6.4-7.065m-31.04 21.974c-.242 0-.3-.181-.3-.423v-16.726a.483.483 0 0 1 .543-.543h2.837c3.261 0 5.495 2.657 5.495 6.1 0 5.133-4.046 8.756-7.427 11.171a2.777 2.777 0 0 1 -1.087.362m-.362 5.737a.785.785 0 0 1 .483-.725c7-4.589 12.5-9.6 12.5-16.908 0-5.737-2.838-9.6-9.239-9.6h-7.247a.6.6 0 0 0 -.664.664v33.393a.6.6 0 0 0 .664.664h2.717c.483 0 .725-.181.725-.664v-6.823z" transform="translate(.006 -109.019)"></path>
    <path d="m116.114 151.229a37.438 37.438 0 0 0 -4.589-3.5c-1.63-1.087-3.321-2.113-5.012-3.08a47.578 47.578 0 0 1 -4.408-2.838c-2.9-2.174-4.408-4.529-4.408-7.125v-.3a6.34 6.34 0 0 1 2.053-5.072 7.427 7.427 0 0 1 5.133-1.872 10.567 10.567 0 0 1 5.555 1.51 10.869 10.869 0 0 1 3.925 4.106.6.6 0 0 0 1.147-.3v-3.388a.6.6 0 0 0 -.121-.362 12.3 12.3 0 0 0 -10.145-4.71 11.9 11.9 0 0 0 -7.729 2.6 9.292 9.292 0 0 0 -3.2 7.548v.483a10.145 10.145 0 0 0 1.812 5.857 15.579 15.579 0 0 0 4.468 4.348l5.616 3.563 5.616 3.683a14.431 14.431 0 0 1 4.106 4.287 10.567 10.567 0 0 1 1.63 5.737v.423a9.946 9.946 0 0 1 -3.442 7.971 12.137 12.137 0 0 1 -8.212 3.019 13.586 13.586 0 0 1 -7.971-2.234 14.311 14.311 0 0 1 -4.891-5.857.6.6 0 0 0 -1.147.242v3.563a.6.6 0 0 0 .121.362 15.211 15.211 0 0 0 13.345 7.065 16.078 16.078 0 0 0 10.99-3.865 13.345 13.345 0 0 0 4.589-10.446v-.664a13.707 13.707 0 0 0 -1.328-6.1 15.157 15.157 0 0 0 -3.442-4.65z" transform="translate(-36.403 -49.24)"></path>
    <path d="m177.278 125.8h-17.878a.6.6 0 0 0 -.6.6v49.58a.6.6 0 0 0 .6.6h17.934a.6.6 0 0 0 .6-.6v-1.932a.6.6 0 0 0 -.6-.6h-15.1v-11.236h12.5a.6.6 0 0 0 .6-.6v-1.932a.6.6 0 0 0 -.6-.6h-12.56v-30.08h15.1a.6.6 0 0 0 .6-.6v-1.932a.6.6 0 0 0 -.6-.6z" transform="translate(-62.906 -49.836)"></path>
    <path d="m230.831 124.277a.6.6 0 0 0 -1.087 0l-24.697 50.723a.6.6 0 0 0 .543.906h2.053a.6.6 0 0 0 .543-.3l7.608-14.19h28.683l7.729 14.19a.6.6 0 0 0 .543.3h2.295a.6.6 0 0 0 .543-.906zm-13.587 33.936 12.862-27.656 12.922 27.656z" transform="translate(-81.195 -49.098)"></path>
    <path d="m326.214 151.229a37.5 37.5 0 0 0 -4.589-3.5c-1.63-1.087-3.321-2.113-5.012-3.08a47.638 47.638 0 0 1 -4.408-2.838c-2.9-2.174-4.408-4.529-4.408-7.125v-.3a6.34 6.34 0 0 1 2.053-5.072 7.427 7.427 0 0 1 5.133-1.872 10.567 10.567 0 0 1 5.555 1.51 10.869 10.869 0 0 1 3.925 4.106.6.6 0 0 0 1.147-.3v-3.388a.6.6 0 0 0 -.121-.362 12.3 12.3 0 0 0 -10.145-4.71 11.9 11.9 0 0 0 -7.729 2.6 9.292 9.292 0 0 0 -3.2 7.548v.483a10.145 10.145 0 0 0 1.812 5.857 15.519 15.519 0 0 0 4.468 4.348l5.616 3.563 5.616 3.683a14.431 14.431 0 0 1 4.106 4.287 10.566 10.566 0 0 1 1.63 5.737v.423a9.946 9.946 0 0 1 -3.442 7.971 12.137 12.137 0 0 1 -8.212 3.019 13.488 13.488 0 0 1 -7.971-2.234 14.311 14.311 0 0 1 -4.891-5.857.6.6 0 0 0 -1.147.242v3.563a.6.6 0 0 0 .121.362 15.211 15.211 0 0 0 13.345 7.065 16.078 16.078 0 0 0 10.99-3.865 13.3 13.3 0 0 0 4.529-10.446v-.664a13.707 13.707 0 0 0 -1.329-6.1 15.156 15.156 0 0 0 -3.442-4.65z" transform="translate(-119.635 -49.24)"></path>
    <path d="m387.338 168.505h.845a20.712 20.712 0 0 0 15.338-6.642 21.738 21.738 0 0 0 6.4-15.579 21.2 21.2 0 0 0 -6.461-15.458 22.1 22.1 0 0 0 -31.34 0 21.134 21.134 0 0 0 -6.522 15.4 21.678 21.678 0 0 0 6.461 15.519 20.686 20.686 0 0 0 15.277 6.642zm-18.659-22.1a19.263 19.263 0 0 1 19.142-19.2 18.357 18.357 0 0 1 13.466 5.616 19.2 19.2 0 0 1 0 27.113 19.112 19.112 0 0 1 -32.608-13.587z" transform="translate(-144.831 -49.246)"></path>
    <path d="m500.769 125.325h-1.932a.6.6 0 0 0 -.6.6v42.39l-35.446-43.477a.6.6 0 0 0 -1.087.362v50.3a.6.6 0 0 0 .6.6h1.932a.6.6 0 0 0 .6-.6v-42.39l35.446 43.537a.6.6 0 0 0 .483.242h.181a.6.6 0 0 0 .423-.6v-50.3a.6.6 0 0 0 -.6-.6z" transform="translate(-182.902 -49.361)"></path>
    <path d="m571.509 155.879a15.16 15.16 0 0 0 -3.442-4.65 37.56 37.56 0 0 0 -4.589-3.5c-1.63-1.087-3.321-2.113-5.012-3.08a47.629 47.629 0 0 1 -4.408-2.838c-2.9-2.174-4.408-4.529-4.408-7.125v-.3a6.341 6.341 0 0 1 2.053-5.072 7.427 7.427 0 0 1 5.133-1.872 10.567 10.567 0 0 1 5.555 1.51 10.869 10.869 0 0 1 3.925 4.106.6.6 0 0 0 1.147-.3v-3.388a.6.6 0 0 0 -.121-.362 12.3 12.3 0 0 0 -10.142-4.708 11.9 11.9 0 0 0 -7.729 2.6 9.292 9.292 0 0 0 -3.2 7.548v.483a10.145 10.145 0 0 0 1.812 5.857 15.578 15.578 0 0 0 4.468 4.348l5.616 3.563 5.616 3.683a14.43 14.43 0 0 1 4.106 4.287 10.566 10.566 0 0 1 1.63 5.737v.423a9.946 9.946 0 0 1 -3.442 7.971 12.138 12.138 0 0 1 -8.212 3.019 13.586 13.586 0 0 1 -7.971-2.234 14.31 14.31 0 0 1 -4.894-5.864.616.616 0 1 0 -1.208.242v3.563a.6.6 0 0 0 .121.362 15.211 15.211 0 0 0 13.345 7.065 16.078 16.078 0 0 0 10.99-3.865 13.394 13.394 0 0 0 4.65-10.446v-.664a13.71 13.71 0 0 0 -1.329-6.1z" transform="translate(-215.418 -49.24)"></path>
    <path d="m365.6 208.334h44.322v-2.234h-44.322z" transform="translate(-144.831 -81.648)"></path>
  </g>
  <path d="m413.03 220.162v-4.408h-413.03v4.408h45.771c35.2 18.9 79.285 31.1 126.868 35.083l.242-2.476c-45.409-3.744-87.618-15.1-121.8-32.608h6.823c32.668 15.76 72.461 25.965 115.214 29.468l.242-2.476c-40.4-3.321-78.138-12.62-109.658-26.992h285.92c-32.608 14.855-71.918 24.335-113.946 27.354l-2.355-22.282h-52.107l-5.253 49.817h62.619l-2.053-19.565c49.213-3.563 94.864-15.881 131.095-35.385zm-177.23 52.414h-57.062l4.77-44.866h47.583l4.77 44.866zm119.622-52.414h6.884c-35.265 18.055-79.043 29.528-126.083 32.91l-.362-3.14c44.383-3.2 85.746-13.526 119.5-29.77zm-164.909 21.738a1.268 1.268 0 0 0 -.181.6.362.362 0 0 0 .362.362 4.285 4.285 0 0 0 .664-.121c.121 0 .242.06.242.3v17.572c0 .3.181.423.483.423h1.932c.3 0 .483-.121.483-.423v-21.43c0-.483-.121-.845-1.027-.845s-2.113 2.295-2.9 3.563zm8.454 3.744c0-2.295 1.027-5.253 2.959-5.253s2.536 2.6 2.536 6.944c0 9.541-2.959 11.292-4.106 11.292s-1.389-.362-1.932-.362-1.268 1.087-1.268 1.691.6 1.268 2.778 1.268c3.382 0 7.367-3.683 7.367-14.13 0-6.159-1.872-9.058-5.193-9.058s-5.918 4.227-5.918 7.79c0 4.77 2.9 6.582 4.891 6.582s2.295-.483 2.295-.845-.121-1.872-.483-1.872-.6.362-1.449.362-2.536-.845-2.536-4.408zm10.084-3.744a1.268 1.268 0 0 0 -.181.6.3.3 0 0 0 .362.362 4.287 4.287 0 0 0 .664-.121c.121 0 .242.06.242.3v17.572c0 .3.181.423.483.423h1.932c.3 0 .483-.121.483-.423v-21.43c0-.483-.121-.845-1.087-.845s-2.113 2.295-2.9 3.563zm5.435-3.08.3 1.691c.06.3.121.483.423.483h5.495a.483.483 0 0 1 .483.543l-1.63 8.514h-1.207c-.3 0-.423.181-.483.543a7.543 7.543 0 0 0 -.181 1.027.483.483 0 0 0 .483.483h.966l-1.63 8.454c0 .3.181.423.483.423h1.932c.3 0 .483-.121.483-.423l1.63-8.454h1.208c.3 0 .423-.181.483-.483a6.517 6.517 0 0 0 .181-1.027c0-.3-.121-.543-.483-.543h-.966l1.63-8.514a13.4 13.4 0 0 0 .181-2.6c-.06-.423-.242-.543-.785-.543h-8.514c-.3 0-.483.181-.423.483zm-214.486-86.591h413.03v-4.408h-413.03zm389.782-4.468h2.476v-75.118l-2.476.785v74.394zm-4.106-73.061-2.476.785v72.341h2.476v-73.07zm3.14-3.623 2.959-.966-.543-.423c-38.888-27.837-94.139-45.53-154.765-49.938l2.112-19.75h-62.619l5.253 49.817h52.051l2.355-21.98c57.244 4.046 109.417 20.108 146.493 45.47l2.959-.966c-37.438-26.207-90.758-42.813-149.21-46.979l.3-3.14c59.72 4.287 114.127 21.557 152.652 48.911zm-153.016-68.601-4.77 44.866h-47.582l-4.71-44.866zm-8.694 29.524c0-.543-1.328-1.208-1.872-1.208s-.785 2.9-2.778 2.9-3.08-1.087-3.442-4.408a.318.318 0 0 1 .362-.362h3.2c.785 0 1.449-1.63 1.449-2.295s-.181-.362-.483-.362h-4.468a.3.3 0 0 1 -.362-.362c0-7.427 1.872-10.084 3.744-10.084s1.812 1.268 1.812 2.717c0 .483.181.6.483.6s2.174-.725 2.174-1.389a4.29 4.29 0 0 0 -4.227-4.589c-3.925 0-6.823 3.744-6.823 12.8a.6.6 0 0 1 -.242.543c-.3.181-.483.362-.483.664s.966 1.63.966 2.053c.845 5.314 3.382 7.125 6.22 7.125s4.77-3.5 4.77-4.348zm-13.949 3.683v-21.8c0-.3-.181-.423-.483-.423h-1.932c-.3 0-.483.121-.483.423v14.13a.3.3 0 0 1 -.362.362h-5.072a.3.3 0 0 1 -.362-.362v-14.125c0-.3-.181-.423-.483-.423h-1.932c-.3 0-.483.121-.483.423v14.312c0 .423-.725.3-.725.785s.725 1.872.725 2.174v4.589c0 .3.181.423.483.423h2.052c.3 0 .483-.121.483-.423v-4.348a.3.3 0 0 1 .362-.362h5.072a.3.3 0 0 1 .362.362v4.287c0 .3.181.423.483.423h1.932c.3 0 .483-.121.483-.423zm-13.586-22.217v-1.751c0-.3-.121-.543-.483-.543h-11.172a.483.483 0 0 0 -.483.543v1.691a.483.483 0 0 0 .483.543h3.5a.543.543 0 0 1 .543.543v21.135a.444.444 0 0 0 .483.483h1.993c.3 0 .543-.121.543-.483v-21.135a.543.543 0 0 1 .543-.543h3.563c.3 0 .483-.181.483-.543zm-169.439 62.196-2.476-.845v73h2.476zm1.027-2.295c35.989-24.637 86.168-40.518 141.42-45.167l-.242-2.476c-56.459 4.77-107.726 21.134-144.137 46.617l2.959.966zm-7.548.06-2.476-.845v75.239h2.415v-74.393zm.906-2.295c37.378-26.569 89.852-43.6 147.58-48.489l-.242-2.476c-58.634 4.953-111.955 22.404-149.755 49.577l-.543.362 2.9.966z" fill="#a67c02" transform="translate(.003)"></path>
</svg>
