<svg xmlns="http://www.w3.org/2000/svg" viewBox="0 0 23.49 19.1"><defs><style>.cls-1{fill:#fff;}</style></defs><title>twitter</title><g id="Layer_2" data-name="Layer 2"><g id="Layer_1-2" data-name="Layer 1"><path class="cls-1" d="M21.08,4.76c0,.2,0,.41,0,.62v.19A13.64,13.64,0,0,1,7.37,19.1,13.38,13.38,0,0,1,0,16.92,8.77,8.77,0,0,0,1.15,17a9.65,9.65,0,0,0,6-2.06,4.8,4.8,0,0,1-4.5-3.35,4.6,4.6,0,0,0,.91.09,5,5,0,0,0,1.27-.17A4.81,4.81,0,0,1,1,6.77V6.71a4.72,4.72,0,0,0,2.18.6A4.82,4.82,0,0,1,1.63.88a13.63,13.63,0,0,0,9.94,5,4.09,4.09,0,0,1-.13-1.1,4.82,4.82,0,0,1,8.34-3.3A9.65,9.65,0,0,0,22.84.35,4.85,4.85,0,0,1,20.72,3a9.67,9.67,0,0,0,2.77-.76A9.88,9.88,0,0,1,21.08,4.76Z"/></g></g></svg>