<svg xmlns="http://www.w3.org/2000/svg" viewBox="0 0 40 40"><defs><style>.cls-1{fill:#fff;}</style></defs><title>instagram</title><g id="Layer_2" data-name="Layer 2"><g id="Layer_1-2" data-name="Layer 1"><g id="instagram"><path id="Path_6" data-name="Path 6" class="cls-1" d="M20,3.6c5.34,0,6,0,8.08.12a11.18,11.18,0,0,1,3.71.69,6.08,6.08,0,0,1,2.3,1.5,6.08,6.08,0,0,1,1.5,2.3,11,11,0,0,1,.69,3.71c.1,2.11.12,2.75.12,8.08s0,6-.12,8.08a11,11,0,0,1-.69,3.72,6.65,6.65,0,0,1-3.8,3.8,11.18,11.18,0,0,1-3.71.69c-2.11.09-2.74.11-8.08.11s-6,0-8.08-.11a11.18,11.18,0,0,1-3.71-.69,6.33,6.33,0,0,1-2.3-1.5,6.16,6.16,0,0,1-1.5-2.3,11,11,0,0,1-.69-3.71C3.62,26,3.6,25.35,3.6,20s0-6,.12-8.08A10.92,10.92,0,0,1,4.4,8.22,6.16,6.16,0,0,1,5.9,5.91a6.16,6.16,0,0,1,2.3-1.5,11,11,0,0,1,3.72-.69C14,3.62,14.66,3.6,20,3.6M20,0c-5.43,0-6.12,0-8.25.12a14.86,14.86,0,0,0-4.85.93A9.74,9.74,0,0,0,3.35,3.36,9.89,9.89,0,0,0,1.05,6.9a14.66,14.66,0,0,0-.93,4.86C0,13.88,0,14.57,0,20s0,6.11.12,8.25a14.6,14.6,0,0,0,.93,4.85,9.79,9.79,0,0,0,2.31,3.54A9.79,9.79,0,0,0,6.9,39a14.66,14.66,0,0,0,4.86.93c2.12.1,2.81.12,8.24.12s6.11,0,8.25-.12A14.6,14.6,0,0,0,33.1,39,10.21,10.21,0,0,0,39,33.1a14.6,14.6,0,0,0,.93-4.85C40,26.12,40,25.43,40,20s0-6.11-.12-8.25A14.6,14.6,0,0,0,39,6.9a9.74,9.74,0,0,0-2.31-3.55,9.94,9.94,0,0,0-3.54-2.3A14.6,14.6,0,0,0,28.25.12C26.12,0,25.43,0,20,0Z"/><path id="Path_7" data-name="Path 7" class="cls-1" d="M20,11.48A8.53,8.53,0,1,0,28.52,20h0A8.52,8.52,0,0,0,20,11.48Zm0,14.05A5.53,5.53,0,1,1,25.53,20h0A5.52,5.52,0,0,1,20,25.53Z"/><circle id="Ellipse_4" data-name="Ellipse 4" class="cls-1" cx="30.59" cy="9.41" r="2.54"/></g></g></g></svg>